<svg width="27" height="32" viewBox="0 0 27 32" fill="none" xmlns="http://www.w3.org/2000/svg">
<path d="M17.3507 4.77908L17.3506 4.77901L17.3438 4.78734C16.8634 5.38283 16.1979 5.91191 15.4801 6.29093C14.7621 6.67004 14.0257 6.8814 13.4042 6.88313C13.4019 6.84356 13.4005 6.80285 13.4005 6.76228C13.4005 5.25721 14.1815 3.73129 15.0393 2.75608L15.0393 2.75609L15.0425 2.75235C16.0169 1.62226 17.5683 0.750614 18.9309 0.543892C18.9319 0.57655 18.9323 0.609733 18.9323 0.643264C18.9323 2.14653 18.282 3.67409 17.3507 4.77908ZM18.8755 8.23517C19.7136 8.23517 22.5102 8.3112 24.5086 10.7918C24.4431 10.8391 24.3722 10.8918 24.2967 10.9502C23.9426 11.2237 23.4883 11.62 23.0395 12.149C22.1392 13.21 21.259 14.8088 21.259 17.0065C21.259 19.5458 22.3797 21.2765 23.5128 22.3676C24.2452 23.0729 24.9869 23.516 25.4465 23.7495C25.4459 23.751 25.4454 23.7526 25.4449 23.7541C25.3614 23.9994 25.2353 24.3427 25.0626 24.7522C24.7169 25.5721 24.1875 26.6497 23.4437 27.7347C22.7546 28.7265 22.0843 29.6652 21.3304 30.3603C20.5854 31.0472 19.7991 31.4584 18.8787 31.4584C17.9349 31.4584 17.3435 31.2006 16.6466 30.8969C16.6245 30.8873 16.6023 30.8776 16.58 30.8679C15.8322 30.5424 14.9889 30.1943 13.6302 30.1943C12.3036 30.1943 11.3987 30.553 10.6093 30.8866C10.575 30.901 10.5412 30.9154 10.5075 30.9296C9.76819 31.2428 9.16089 31.5 8.32083 31.5C7.49641 31.5 6.7672 31.1279 6.02451 30.4408C5.27304 29.7457 4.55532 28.773 3.75247 27.6468C1.95742 25.0933 0.5 21.1064 0.5 17.3393C0.5 11.3653 4.34927 8.31838 8.0264 8.31838C8.98044 8.31838 9.87247 8.63159 10.74 8.97732C10.8354 9.01533 10.9313 9.05409 11.0274 9.0929C11.356 9.22561 11.6858 9.35882 11.9968 9.46396C12.4003 9.6004 12.8203 9.70732 13.2333 9.70732C13.6356 9.70732 14.0606 9.59213 14.4728 9.44998C14.7561 9.35227 15.0648 9.22997 15.379 9.10553C15.5209 9.04929 15.664 8.99262 15.8063 8.93759C16.7482 8.57334 17.77 8.23517 18.8755 8.23517Z" stroke="white"/>
</svg>
